<!-- Generated by IcoMoon.io -->
<svg version="1.1" xmlns="http://www.w3.org/2000/svg" width="28" height="32" viewBox="0 0 28 32">
<title>comment-alt2-stroke</title>
<path d="M14 0c-7.73 0-14 6.27-14 14 0 3.832 1.547 7.297 4.043 9.828l0.023 8.172 6.637-4.434c1.063 0.262 2.156 0.434 3.297 0.434 7.73 0 14-6.27 14-14s-6.27-14-14-14zM14 24c-0.707 0-1.473-0.105-2.34-0.316l-1.703-0.422-1.918 1.27 0.012-2.336-1.16-1.176c-1.864-1.891-2.891-4.383-2.891-7.020 0-5.516 4.484-10 10-10s10 4.484 10 10c0 5.516-4.484 10-10 10z"></path>
</svg>
